<svg width="296" height="63" viewBox="0 0 296 63" fill="none" xmlns="http://www.w3.org/2000/svg">
<g clip-path="url(#clip0_10_118)">
<path d="M25 14.8333C22.1235 14.8333 19.7917 17.1652 19.7917 20.0417C19.7917 22.9182 22.1235 25.25 25 25.25C27.8765 25.25 30.2083 22.9182 30.2083 20.0417C30.2083 17.1652 27.8765 14.8333 25 14.8333ZM25 14.8333V10.6667M43.75 37.6197C39.1691 42.8099 32.4668 46.0833 25 46.0833C17.5332 46.0833 10.8309 42.8099 6.25 37.6197M22.3851 24.5452L6.25 52.3333M27.6149 24.5452L43.75 52.3333" stroke="#4660F6" stroke-width="8" stroke-linecap="round" stroke-linejoin="round"/>
</g>
<path d="M78.4181 50.2C75.6661 50.2 73.1861 49.64 70.9781 48.52C68.8021 47.368 67.0741 45.608 65.7941 43.24C64.5141 40.872 63.8741 37.88 63.8741 34.264C63.8741 32.504 64.1781 30.696 64.7861 28.84C65.3941 26.984 66.2741 25.192 67.4261 23.464C68.6101 21.704 70.0661 20.136 71.7941 18.76C73.5541 17.352 75.5861 16.248 77.8901 15.448C80.1941 14.616 82.7541 14.2 85.5701 14.2C87.2981 14.2 88.8501 14.44 90.2261 14.92C91.6341 15.4 92.7381 16.12 93.5381 17.08C94.3381 18.008 94.7381 19.176 94.7381 20.584C94.7381 21.96 94.4181 23.112 93.7781 24.04C93.1701 24.968 92.3541 25.672 91.3301 26.152C90.3381 26.6 89.2501 26.824 88.0661 26.824C86.6581 26.824 85.2821 26.472 83.9381 25.768C82.5941 25.064 81.5061 24.024 80.6741 22.648C79.5541 23.192 78.4981 24.12 77.5061 25.432C76.5461 26.712 75.7781 28.216 75.2021 29.944C74.6261 31.672 74.3381 33.464 74.3381 35.32C74.3381 36.632 74.4981 37.864 74.8181 39.016C75.1701 40.136 75.6981 41.048 76.4021 41.752C77.1061 42.456 78.0021 42.808 79.0901 42.808C79.9861 42.808 80.8501 42.472 81.6821 41.8C82.5141 41.096 83.2021 40.168 83.7461 39.016C84.2901 37.864 84.5621 36.568 84.5621 35.128C86.5141 35.128 88.1461 35.224 89.4581 35.416C90.8021 35.576 91.8261 35.944 92.5301 36.52C93.2341 37.096 93.5861 37.992 93.5861 39.208C93.5861 40.424 93.2341 41.672 92.5301 42.952C91.8261 44.232 90.8021 45.432 89.4581 46.552C88.1461 47.64 86.5461 48.52 84.6581 49.192C82.8021 49.864 80.7221 50.2 78.4181 50.2ZM102.256 50.2C100.464 50.2 98.8797 49.736 97.5037 48.808C96.1597 47.88 95.1197 46.568 94.3837 44.872C93.6477 43.176 93.2797 41.192 93.2797 38.92C93.2797 36.264 93.7437 33.8 94.6717 31.528C95.6317 29.256 96.9437 27.272 98.6077 25.576C100.304 23.88 102.288 22.568 104.56 21.64C106.832 20.68 109.296 20.2 111.952 20.2C112.72 20.2 113.376 20.232 113.92 20.296C114.496 20.328 115.104 20.424 115.744 20.584C115.936 21.48 116.048 22.264 116.08 22.936C116.816 22.456 117.632 22.088 118.528 21.832C119.424 21.544 120.256 21.4 121.024 21.4C123.36 21.4 124.528 22.664 124.528 25.192C124.528 26.024 124.368 27.16 124.048 28.6C123.76 30.008 123.408 31.576 122.992 33.304C122.608 35 122.256 36.744 121.936 38.536C121.648 40.296 121.504 41.944 121.504 43.48C121.504 45.56 122 47.016 122.992 47.848C121.2 49.416 119.296 50.2 117.28 50.2C115.424 50.2 114.048 49.624 113.152 48.472C112.288 47.32 111.856 45.528 111.856 43.096L111.376 42.856C110.512 45.16 109.264 46.968 107.632 48.28C106.032 49.56 104.24 50.2 102.256 50.2ZM106.048 41.464C107.296 41.464 108.512 41.016 109.696 40.12C110.88 39.224 111.872 37.992 112.672 36.424C112.8 35.176 112.928 34.008 113.056 32.92C113.216 31.8 113.408 30.616 113.632 29.368C113.888 28.12 114.192 26.648 114.544 24.952C112.912 24.952 111.36 25.272 109.888 25.912C108.448 26.52 107.152 27.368 106 28.456C104.848 29.544 103.936 30.792 103.264 32.2C102.624 33.576 102.304 35.032 102.304 36.568C102.304 38.136 102.624 39.352 103.264 40.216C103.936 41.048 104.864 41.464 106.048 41.464ZM131.119 50.2C129.103 50.2 127.663 49.688 126.799 48.664C125.935 47.64 125.503 46.168 125.503 44.248C125.503 43.576 125.599 42.552 125.791 41.176C125.983 39.768 126.223 38.216 126.511 36.52C126.831 34.792 127.167 33.064 127.519 31.336C127.871 29.608 128.207 28.072 128.527 26.728L126.031 22.888C127.343 22.152 128.751 21.528 130.255 21.016C131.791 20.472 133.343 20.2 134.911 20.2C136.255 20.2 137.247 20.536 137.887 21.208C138.527 21.848 138.847 22.728 138.847 23.848C138.847 24.68 138.735 25.544 138.511 26.44C138.287 27.336 138.031 28.104 137.743 28.744L138.223 28.984C140.111 25.752 142.095 23.48 144.175 22.168C146.255 20.856 148.463 20.2 150.799 20.2C152.495 20.2 153.887 20.632 154.975 21.496C156.063 22.328 156.607 23.688 156.607 25.576C156.607 26.536 156.447 27.592 156.127 28.744L156.607 28.984C158.495 25.752 160.479 23.48 162.559 22.168C164.639 20.856 166.847 20.2 169.183 20.2C171.135 20.2 172.591 20.68 173.551 21.64C174.511 22.568 174.991 24.024 174.991 26.008C174.991 27.736 174.751 29.576 174.271 31.528C173.823 33.448 173.359 35.432 172.879 37.48C172.399 39.496 172.159 41.496 172.159 43.48C172.159 45.464 172.495 46.92 173.167 47.848C171.471 49.416 169.711 50.2 167.887 50.2C165.871 50.2 164.431 49.688 163.567 48.664C162.703 47.64 162.271 46.168 162.271 44.248C162.271 43.192 162.415 42.024 162.703 40.744C162.991 39.432 163.327 38.104 163.711 36.76C164.095 35.416 164.431 34.152 164.719 32.968C165.007 31.784 165.151 30.76 165.151 29.896C165.151 29.224 165.023 28.696 164.767 28.312C164.543 27.928 164.127 27.736 163.519 27.736C162.655 27.736 161.663 28.12 160.543 28.888C159.455 29.656 158.383 30.744 157.327 32.152C156.303 33.528 155.455 35.176 154.783 37.096C154.111 39.016 153.775 41.144 153.775 43.48C153.775 45.464 154.111 46.92 154.783 47.848C153.087 49.416 151.327 50.2 149.503 50.2C147.487 50.2 146.047 49.688 145.183 48.664C144.319 47.64 143.887 46.168 143.887 44.248C143.887 43.192 144.031 42.024 144.319 40.744C144.607 39.432 144.943 38.104 145.327 36.76C145.711 35.416 146.047 34.152 146.335 32.968C146.623 31.784 146.767 30.76 146.767 29.896C146.767 29.224 146.639 28.696 146.383 28.312C146.159 27.928 145.743 27.736 145.135 27.736C144.271 27.736 143.279 28.12 142.159 28.888C141.071 29.656 139.999 30.744 138.943 32.152C137.919 33.528 137.071 35.176 136.399 37.096C135.727 39.016 135.391 41.144 135.391 43.48C135.391 45.464 135.727 46.92 136.399 47.848C134.703 49.416 132.943 50.2 131.119 50.2ZM181.225 58.552C179.177 58.552 177.785 58.04 177.049 57.016C176.313 55.992 175.945 54.52 175.945 52.6C175.945 51.896 176.025 50.808 176.185 49.336C176.345 47.864 176.537 46.184 176.761 44.296C177.017 42.376 177.305 40.392 177.625 38.344C177.945 36.296 178.249 34.328 178.537 32.44C178.857 30.552 179.145 28.904 179.401 27.496L176.713 23.656C178.409 22.664 180.009 21.832 181.513 21.16C183.049 20.488 184.585 20.152 186.121 20.152C187.465 20.152 188.377 20.616 188.857 21.544C189.337 22.44 189.577 23.496 189.577 24.712C189.577 25.064 189.561 25.464 189.529 25.912C189.497 26.328 189.449 26.776 189.385 27.256L189.865 27.496C190.793 25.192 192.137 23.4 193.897 22.12C195.657 20.808 197.673 20.152 199.945 20.152C201.673 20.152 203.129 20.68 204.313 21.736C205.497 22.76 206.393 24.12 207.001 25.816C207.609 27.512 207.913 29.384 207.913 31.432C207.913 33.416 207.529 35.448 206.761 37.528C206.025 39.576 204.889 41.464 203.353 43.192C201.817 44.92 199.881 46.312 197.545 47.368C195.209 48.424 192.441 48.952 189.241 48.952C188.633 48.952 188.041 48.936 187.465 48.904C186.889 48.84 186.265 48.776 185.593 48.712C185.497 49.8 185.449 50.84 185.449 51.832C185.449 52.792 185.561 53.64 185.785 54.376C186.041 55.144 186.425 55.752 186.937 56.2C185.145 57.768 183.241 58.552 181.225 58.552ZM186.457 44.248C188.537 44.184 190.361 43.8 191.929 43.096C193.529 42.36 194.873 41.416 195.961 40.264C197.049 39.08 197.865 37.8 198.409 36.424C198.953 35.048 199.225 33.704 199.225 32.392C199.225 30.92 198.937 29.72 198.361 28.792C197.785 27.864 196.921 27.4 195.769 27.4C194.585 27.4 193.465 27.768 192.409 28.504C191.385 29.208 190.457 30.376 189.625 32.008C188.825 33.64 188.137 35.864 187.561 38.68L186.457 44.248ZM217.111 50.2C215.319 50.2 213.735 49.736 212.359 48.808C211.015 47.88 209.975 46.568 209.239 44.872C208.503 43.176 208.135 41.192 208.135 38.92C208.135 36.264 208.599 33.8 209.527 31.528C210.487 29.256 211.799 27.272 213.463 25.576C215.159 23.88 217.143 22.568 219.415 21.64C221.687 20.68 224.151 20.2 226.807 20.2C227.575 20.2 228.231 20.232 228.775 20.296C229.351 20.328 229.959 20.424 230.599 20.584C230.791 21.48 230.903 22.264 230.935 22.936C231.671 22.456 232.487 22.088 233.383 21.832C234.279 21.544 235.111 21.4 235.879 21.4C238.215 21.4 239.383 22.664 239.383 25.192C239.383 26.024 239.223 27.16 238.903 28.6C238.615 30.008 238.263 31.576 237.847 33.304C237.463 35 237.111 36.744 236.791 38.536C236.503 40.296 236.359 41.944 236.359 43.48C236.359 45.56 236.855 47.016 237.847 47.848C236.055 49.416 234.151 50.2 232.135 50.2C230.279 50.2 228.903 49.624 228.007 48.472C227.143 47.32 226.711 45.528 226.711 43.096L226.231 42.856C225.367 45.16 224.119 46.968 222.487 48.28C220.887 49.56 219.095 50.2 217.111 50.2ZM220.903 41.464C222.151 41.464 223.367 41.016 224.551 40.12C225.735 39.224 226.727 37.992 227.527 36.424C227.655 35.176 227.783 34.008 227.911 32.92C228.071 31.8 228.263 30.616 228.487 29.368C228.743 28.12 229.047 26.648 229.399 24.952C227.767 24.952 226.215 25.272 224.743 25.912C223.303 26.52 222.007 27.368 220.855 28.456C219.703 29.544 218.791 30.792 218.119 32.2C217.479 33.576 217.159 35.032 217.159 36.568C217.159 38.136 217.479 39.352 218.119 40.216C218.791 41.048 219.719 41.464 220.903 41.464ZM251.782 50.2C248.774 50.2 246.374 49.96 244.582 49.48C242.822 49.032 241.558 48.408 240.79 47.608C240.022 46.808 239.638 45.928 239.638 44.968C239.638 44.232 239.83 43.384 240.214 42.424C240.63 41.464 241.222 40.552 241.99 39.688C242.534 40.424 243.254 41.112 244.15 41.752C245.078 42.36 246.086 42.856 247.174 43.24C248.262 43.592 249.318 43.768 250.342 43.768C251.462 43.768 252.47 43.512 253.366 43C254.262 42.456 254.854 41.544 255.142 40.264C250.214 39.688 246.678 38.6 244.534 37C242.39 35.368 241.318 33.112 241.318 30.232C241.318 28.408 241.75 26.856 242.614 25.576C243.478 24.296 244.63 23.272 246.07 22.504C247.542 21.704 249.206 21.128 251.062 20.776C252.95 20.392 254.902 20.2 256.918 20.2C258.806 20.2 260.486 20.456 261.958 20.968C263.43 21.448 264.582 22.104 265.414 22.936C266.246 23.768 266.662 24.728 266.662 25.816C266.662 27.352 266.102 28.52 264.982 29.32C263.894 30.12 262.646 30.52 261.238 30.52C260.278 30.52 259.27 30.2 258.214 29.56C257.158 28.92 256.31 27.928 255.67 26.584C254.486 26.936 253.542 27.448 252.838 28.12C252.134 28.76 251.51 29.688 250.966 30.904C254.614 31.448 257.51 32.136 259.654 32.968C261.798 33.8 263.334 34.856 264.262 36.136C265.222 37.384 265.702 38.936 265.702 40.792C265.702 42.264 265.366 43.544 264.694 44.632C264.054 45.72 263.206 46.616 262.15 47.32C261.094 48.024 259.942 48.584 258.694 49C257.446 49.448 256.214 49.752 254.998 49.912C253.782 50.104 252.71 50.2 251.782 50.2ZM278.786 50.2C275.778 50.2 273.378 49.96 271.586 49.48C269.826 49.032 268.562 48.408 267.794 47.608C267.026 46.808 266.642 45.928 266.642 44.968C266.642 44.232 266.834 43.384 267.218 42.424C267.634 41.464 268.226 40.552 268.994 39.688C269.538 40.424 270.258 41.112 271.154 41.752C272.082 42.36 273.09 42.856 274.178 43.24C275.266 43.592 276.322 43.768 277.346 43.768C278.466 43.768 279.474 43.512 280.37 43C281.266 42.456 281.858 41.544 282.146 40.264C277.218 39.688 273.682 38.6 271.538 37C269.394 35.368 268.322 33.112 268.322 30.232C268.322 28.408 268.754 26.856 269.618 25.576C270.482 24.296 271.634 23.272 273.074 22.504C274.546 21.704 276.21 21.128 278.066 20.776C279.954 20.392 281.906 20.2 283.922 20.2C285.81 20.2 287.49 20.456 288.962 20.968C290.434 21.448 291.586 22.104 292.418 22.936C293.25 23.768 293.666 24.728 293.666 25.816C293.666 27.352 293.106 28.52 291.986 29.32C290.898 30.12 289.65 30.52 288.242 30.52C287.282 30.52 286.274 30.2 285.218 29.56C284.162 28.92 283.314 27.928 282.674 26.584C281.49 26.936 280.546 27.448 279.842 28.12C279.138 28.76 278.514 29.688 277.97 30.904C281.618 31.448 284.514 32.136 286.658 32.968C288.802 33.8 290.338 34.856 291.266 36.136C292.226 37.384 292.706 38.936 292.706 40.792C292.706 42.264 292.37 43.544 291.698 44.632C291.058 45.72 290.21 46.616 289.154 47.32C288.098 48.024 286.946 48.584 285.698 49C284.45 49.448 283.218 49.752 282.002 49.912C280.786 50.104 279.714 50.2 278.786 50.2Z" fill="url(#paint0_linear_10_118)"/>
<defs>
<linearGradient id="paint0_linear_10_118" x1="62" y1="31.5" x2="296" y2="31.5" gradientUnits="userSpaceOnUse">
<stop stop-color="#4660F6"/>
<stop offset="1" stop-color="#8B98F8"/>
</linearGradient>
<clipPath id="clip0_10_118">
<rect width="50" height="50" fill="white" transform="translate(0 6.5)"/>
</clipPath>
</defs>
</svg>
