<?xml version="1.0" encoding="UTF-8" standalone="no"?>
<!-- Created with Inkscape (http://www.inkscape.org/) -->

<svg
   width="79.374992mm"
   height="73.956253mm"
   viewBox="0 0 79.374992 73.956253"
   version="1.1"
   id="svg5"
   inkscape:version="1.1 (c68e22c387, 2021-05-23)"
   sodipodi:docname="GIST.svg"
   xmlns:inkscape="http://www.inkscape.org/namespaces/inkscape"
   xmlns:sodipodi="http://sodipodi.sourceforge.net/DTD/sodipodi-0.dtd"
   xmlns="http://www.w3.org/2000/svg"
   xmlns:svg="http://www.w3.org/2000/svg">
  <sodipodi:namedview
     id="namedview7"
     pagecolor="#ffffff"
     bordercolor="#666666"
     borderopacity="1.0"
     inkscape:pageshadow="2"
     inkscape:pageopacity="0.0"
     inkscape:pagecheckerboard="0"
     inkscape:document-units="mm"
     showgrid="false"
     lock-margins="true"
     fit-margin-top="0"
     fit-margin-left="0"
     fit-margin-right="0"
     fit-margin-bottom="0"
     inkscape:zoom="1.0834657"
     inkscape:cx="229.81806"
     inkscape:cy="310.57742"
     inkscape:window-width="1920"
     inkscape:window-height="991"
     inkscape:window-x="2391"
     inkscape:window-y="-9"
     inkscape:window-maximized="1"
     inkscape:current-layer="layer1" />
  <defs
     id="defs2" />
  <g
     inkscape:label="레이어 1"
     inkscape:groupmode="layer"
     id="layer1"
     transform="translate(-43.259595,-58.148374)">
    <path
       d="m 54.283249,66.203477 c 1.948792,0 3.495872,0.444809 4.223484,0.814119 L 57.9578,68.880825 c -0.900943,-0.446382 -2.024919,-0.761586 -3.727085,-0.761586 -4.100172,0 -6.774059,2.67892 -6.774059,7.114429 0,4.48993 2.547743,7.138967 6.498176,7.138967 1.423767,0 2.400837,-0.211709 2.902584,-0.469031 v -5.277942 h -3.4015 v -1.840264 h 5.552565 v 8.50674 c -0.979587,0.393848 -2.926178,0.971722 -5.203387,0.971722 -2.547743,0 -4.64879,-0.677595 -6.300938,-2.339495 -1.452393,-1.465606 -2.35082,-3.829322 -2.35082,-6.582168 0,-5.2792 3.474797,-9.13872 9.129913,-9.13872 M 43.259595,132.10444 H 60.947207 V 58.148467 H 43.259595 Z"
       style="fill:#df2824;fill-opacity:1;fill-rule:nonzero;stroke:none;stroke-width:0.314575"
       id="path842" />
    <path
       d="m 72.002223,85.470162 h 2.300803 V 103.1647 H 72.002223 Z M 63.822957,132.10434 H 81.507739 V 58.148374 H 63.822957 Z"
       style="fill:#505c5b;fill-opacity:1;fill-rule:nonzero;stroke:none;stroke-width:0.314575"
       id="path844" />
    <path
       d="m 93.432494,116.91763 c -2.873643,-1.05256 -4.651621,-2.57448 -4.651621,-5.04296 0,-2.75441 2.272176,-4.80167 5.696638,-4.80167 1.78364,0 3.112725,0.41838 3.872107,0.86508 l -0.627888,1.86481 c -0.546425,-0.33974 -1.726077,-0.83866 -3.322859,-0.83866 -2.400524,0 -3.319713,1.44453 -3.319713,2.65123 0,1.65436 1.074274,2.46534 3.50625,3.41095 2.978719,1.17996 4.467595,2.60027 4.467595,5.19867 0,2.73144 -1.985279,5.11844 -6.140502,5.11844 -1.699648,0 -3.554068,-0.52722 -4.502198,-1.15763 l 0.603985,-1.91545 c 1.02457,0.65683 2.484828,1.15387 4.050153,1.15387 2.329747,0 3.690916,-1.20608 3.690916,-3.01521 0,-1.62855 -0.940899,-2.59871 -3.322863,-3.49147 m -9.043403,15.18674 H 102.06852 V 58.148401 H 84.389091 Z"
       style="fill:#505c5b;fill-opacity:1;fill-rule:nonzero;stroke:none;stroke-width:0.314575"
       id="path848" />
    <path
       d="m 120.52033,87.415776 h -5.3871 v 15.748884 h -2.2986 V 87.415776 h -5.35815 v -1.945647 h 13.04385 z m -15.57021,44.688854 h 17.68447 V 58.148656 h -17.68447 z"
       style="fill:#505c5b;fill-opacity:1;fill-rule:nonzero;stroke:none;stroke-width:0.314575"
       id="path852" />
  </g>
</svg>
